<svg width="29" height="29" viewBox="0 0 29 29" fill="none" xmlns="http://www.w3.org/2000/svg">
<path d="M19.5735 10.4559C19.5735 7.65441 17.3015 5.38235 14.5 5.38235C11.6985 5.38235 9.42645 7.65441 9.42645 10.4559C9.42645 13.2574 11.6985 15.5294 14.5 15.5294C17.3015 15.5294 19.5735 13.2574 19.5735 10.4559ZM10.75 10.4559C10.75 8.38235 12.4265 6.70588 14.5 6.70588C16.5735 6.70588 18.25 8.38235 18.25 10.4559C18.25 12.5294 16.5735 14.2059 14.5 14.2059C12.4265 14.2059 10.75 12.5294 10.75 10.4559Z" fill="#808291"/>
<path d="M6.00701 23.5294C6.1173 23.5956 6.22759 23.6176 6.33789 23.6176C6.55848 23.6176 6.80112 23.5074 6.91142 23.2868C8.45554 20.5515 11.3673 18.8529 14.4997 18.8529C17.632 18.8529 20.5438 20.5515 22.1099 23.2868C22.2864 23.5956 22.7055 23.7059 23.0144 23.5294C23.3232 23.3529 23.4335 22.9338 23.257 22.625C21.4702 19.4926 18.1173 17.5294 14.4997 17.5294C10.882 17.5294 7.52906 19.4926 5.7423 22.625C5.56583 22.9338 5.67612 23.3529 6.00701 23.5294Z" fill="#808291"/>
</svg>
