<svg width="29" height="29" viewBox="0 0 29 29" fill="none" xmlns="http://www.w3.org/2000/svg">
<path d="M14.5 15.7134C13.5748 15.7145 12.6779 15.3949 11.9619 14.809C11.246 14.2231 10.7552 13.4071 10.5733 12.5C10.5588 12.4045 10.5652 12.3069 10.5922 12.2141C10.6191 12.1213 10.6659 12.0355 10.7293 11.9625C10.7927 11.8896 10.8713 11.8314 10.9594 11.7918C11.0476 11.7522 11.1433 11.7323 11.24 11.7334C11.3988 11.7311 11.5532 11.7855 11.6754 11.887C11.7976 11.9884 11.8796 12.1302 11.9066 12.2867C12.0322 12.886 12.3601 13.4238 12.8354 13.8098C13.3107 14.1959 13.9043 14.4066 14.5166 14.4066C15.1289 14.4066 15.7225 14.1959 16.1978 13.8098C16.6731 13.4238 17.0011 12.886 17.1266 12.2867C17.1536 12.1302 17.2356 11.9884 17.3578 11.887C17.48 11.7855 17.6345 11.7311 17.7933 11.7334C17.8899 11.7323 17.9856 11.7522 18.0738 11.7918C18.162 11.8314 18.2405 11.8896 18.3039 11.9625C18.3673 12.0355 18.4141 12.1213 18.4411 12.2141C18.468 12.3069 18.4745 12.4045 18.46 12.5C18.2769 13.4128 17.7813 14.2331 17.0584 14.8196C16.3356 15.4062 15.4308 15.7222 14.5 15.7134Z" fill="#808291"/>
<path d="M20.4333 24.5H8.56665C8.29538 24.5004 8.02687 24.4455 7.77746 24.3388C7.52805 24.2321 7.30296 24.0758 7.11587 23.8793C6.92879 23.6829 6.78362 23.4504 6.6892 23.1961C6.59478 22.9418 6.55309 22.6709 6.56665 22.4L7.10665 10.9067C7.129 10.3914 7.34954 9.9047 7.72222 9.54817C8.09489 9.19164 8.5909 8.99286 9.10665 8.99335H19.8933C20.4091 8.99286 20.9051 9.19164 21.2778 9.54817C21.6504 9.9047 21.871 10.3914 21.8933 10.9067L22.4333 22.4C22.4469 22.6709 22.4052 22.9418 22.3108 23.1961C22.2163 23.4504 22.0712 23.6829 21.8841 23.8793C21.697 24.0758 21.4719 24.2321 21.2225 24.3388C20.9731 24.4455 20.7046 24.5004 20.4333 24.5ZM9.10665 10.3333C8.92984 10.3333 8.76027 10.4036 8.63525 10.5286C8.51022 10.6536 8.43998 10.8232 8.43998 11L7.89998 22.4667C7.89546 22.557 7.90936 22.6473 7.94083 22.7321C7.97231 22.8168 8.0207 22.8943 8.08306 22.9598C8.14542 23.0253 8.22045 23.0774 8.30359 23.1129C8.38672 23.1485 8.47622 23.1668 8.56665 23.1667H20.4333C20.5237 23.1668 20.6132 23.1485 20.6964 23.1129C20.7795 23.0774 20.8545 23.0253 20.9169 22.9598C20.9793 22.8943 21.0277 22.8168 21.0591 22.7321C21.0906 22.6473 21.1045 22.557 21.1 22.4667L20.56 10.9733C20.56 10.7965 20.4897 10.627 20.3647 10.5019C20.2397 10.3769 20.0701 10.3067 19.8933 10.3067L9.10665 10.3333Z" fill="#808291"/>
<path d="M18.5 9.66667H17.1667V8.5C17.1667 7.79276 16.8857 7.11448 16.3856 6.61438C15.8855 6.11428 15.2072 5.83333 14.5 5.83333C13.7928 5.83333 13.1145 6.11428 12.6144 6.61438C12.1143 7.11448 11.8333 7.79276 11.8333 8.5V9.66667H10.5V8.5C10.5 7.43913 10.9214 6.42172 11.6716 5.67157C12.4217 4.92143 13.4391 4.5 14.5 4.5C15.5609 4.5 16.5783 4.92143 17.3284 5.67157C18.0786 6.42172 18.5 7.43913 18.5 8.5V9.66667Z" fill="#808291"/>
</svg>
