<svg width="29" height="29" viewBox="0 0 29 29" fill="none" xmlns="http://www.w3.org/2000/svg">
<g opacity="0.5">
<path d="M19.5 6.57145C19.8948 6.57145 20.2143 6.89127 20.2143 7.28574L20.2143 19.99L23.2807 16.9236C23.5598 16.6445 24.0118 16.6445 24.2907 16.9236C24.4302 17.063 24.5 17.2459 24.5 17.4286C24.5 17.6112 24.4302 17.7941 24.2907 17.9336L20.005 22.2193C19.7259 22.4984 19.2739 22.4984 18.995 22.2193L14.7093 17.9336C14.4302 17.6544 14.4302 17.2025 14.7093 16.9236C14.9884 16.6446 15.4404 16.6445 15.7193 16.9236L18.7857 19.99L18.7857 7.28574C18.7857 6.89127 19.1052 6.57145 19.5 6.57145ZM8.99503 6.78074L4.70933 11.0664C4.43022 11.3455 4.43022 11.7975 4.70933 12.0764C4.98844 12.3554 5.4404 12.3555 5.71933 12.0764L8.78575 9.01002L8.78575 21.7143C8.78575 22.1087 9.10521 22.4285 9.50003 22.4285C9.89485 22.4285 10.2143 22.1087 10.2143 21.7143L10.2143 9.01002L13.2807 12.0764C13.5598 12.3555 14.0118 12.3555 14.2907 12.0764C14.4302 11.937 14.5 11.7541 14.5 11.5714C14.5 11.3888 14.4302 11.2059 14.2907 11.0664L10.005 6.78074C9.7261 6.50163 9.27396 6.50163 8.99503 6.78074Z" fill="#808291"/>
</g>
</svg>
