<svg width="20" height="18" viewBox="0 0 20 18" fill="none" xmlns="http://www.w3.org/2000/svg">
<path d="M19.0242 9.4242L13.0242 15.4242C12.9071 15.5414 12.7535 15.6 12.6 15.6C12.4466 15.6 12.2929 15.5414 12.1758 15.4242C11.9413 15.1898 11.9413 14.8101 12.1758 14.5758L17.1516 9.6H5.4C5.06865 9.6 4.8 9.33135 4.8 9C4.8 8.66865 5.06865 8.4 5.4 8.4H17.1516L12.1758 3.4242C11.9413 3.18975 11.9413 2.8101 12.1758 2.5758C12.4102 2.3415 12.7899 2.34135 13.0242 2.5758L19.0242 8.5758C19.2587 8.8101 19.2587 9.1899 19.0242 9.4242ZM8.4 17.4C8.4 17.0687 8.13135 16.8 7.8 16.8H3.6C2.2767 16.8 1.2 15.7233 1.2 14.4V3.6C1.2 2.2767 2.2767 1.2 3.6 1.2H7.8C8.13135 1.2 8.4 0.93135 8.4 0.6C8.4 0.26865 8.13135 0 7.8 0H3.6C1.6149 0 0 1.6149 0 3.6V14.4C0 16.3851 1.6149 18 3.6 18H7.8C8.13135 18 8.4 17.7313 8.4 17.4Z" fill="#808291"/>
</svg>
