<svg width="35" height="35" viewBox="0 0 35 35" fill="none" xmlns="http://www.w3.org/2000/svg">
<circle cx="17.6554" cy="17.7811" r="16.9117" fill="#ECFCF2"/>
<path d="M17.9848 21.0756C19.4404 21.0756 20.6204 19.8957 20.6204 18.4401V13.1689C20.6204 11.7133 19.4404 10.5333 17.9848 10.5333C16.5292 10.5333 15.3492 11.7133 15.3492 13.1689V18.4401C15.3492 19.8956 16.5292 21.0756 17.9848 21.0756ZM16.0081 13.1689C16.0081 12.0771 16.8932 11.1922 17.9848 11.1922C19.0765 11.1922 19.9615 12.0772 19.9615 13.1689V15.8045H16.0081V13.1689ZM16.0081 16.4634H19.9615V18.4401C19.9615 19.5318 19.0765 20.4167 17.9848 20.4167C16.8932 20.4167 16.0081 19.5317 16.0081 18.4401V16.4634Z" fill="#0DD55D"/>
<path d="M21.9382 18.44V17.4517C21.9382 17.2697 21.7907 17.1223 21.6088 17.1223C21.4268 17.1223 21.2793 17.2698 21.2793 17.4517V18.44C21.2793 20.2596 19.8043 21.7346 17.9848 21.7346C16.1653 21.7346 14.6903 20.2596 14.6903 18.44V17.4517C14.6903 17.2697 14.5428 17.1223 14.3609 17.1223C14.1789 17.1223 14.0315 17.2698 14.0315 17.4517V18.44C14.0243 20.501 15.6016 22.2217 17.6554 22.3934V24.3701H15.3492C15.1673 24.3701 15.0198 24.5176 15.0198 24.6996C15.0198 24.8815 15.1673 25.029 15.3492 25.029H20.6204C20.8024 25.029 20.9499 24.8815 20.9499 24.6996C20.9499 24.5177 20.8024 24.3701 20.6204 24.3701H18.3143V22.3935C20.3681 22.2217 21.9454 20.501 21.9382 18.44Z" fill="#0DD55D"/>
</svg>
