<svg width="30" height="30" viewBox="0 0 30 30" fill="none" xmlns="http://www.w3.org/2000/svg">
<path d="M20.6189 13.4291L21.1188 13.4407L21.1188 13.4406L20.6189 13.4291ZM20.6709 11.3282L21.1705 11.3524L21.1708 11.3388L20.6709 11.3282ZM14.6214 5.00159L14.6102 5.50147L14.6103 5.50147L14.6214 5.00159ZM8.29644 11.0469L7.79652 11.0357L7.79646 11.043L8.29644 11.0469ZM8.25273 13.1511L7.75286 13.1398L7.75285 13.1402L8.25273 13.1511ZM5.97283 19.0645L6.33051 19.4139L6.3307 19.4137L5.97283 19.0645ZM6.83398 21.1629L6.84529 20.6631L6.84474 20.663L6.83398 21.1629ZM21.6723 21.4986L21.6609 21.9985L21.6617 21.9985L21.6723 21.4986ZM17.1983 22.8819L17.6775 23.0246L17.8644 22.3968L17.2095 22.3821L17.1983 22.8819ZM11.5018 22.7541L11.5131 22.2542L10.8548 22.2394L11.0173 22.8775L11.5018 22.7541ZM23.0014 19.1078C22.6228 18.6833 22.155 18.2264 21.7696 17.3999C21.3856 16.5763 21.0744 15.3566 21.1188 13.4407L20.1191 13.4175C20.0719 15.4543 20.4016 16.8324 20.8633 17.8225C21.3236 18.8097 21.9062 19.3822 22.2551 19.7734L23.0014 19.1078ZM21.1188 13.4406C21.12 13.3868 21.1318 12.8874 21.1438 12.3886C21.1499 12.1392 21.156 11.8901 21.1609 11.6971C21.1633 11.6006 21.1655 11.5183 21.1671 11.4572C21.168 11.4265 21.1687 11.4015 21.1693 11.3828C21.1696 11.3735 21.1698 11.366 21.17 11.3604C21.1702 11.3541 21.1703 11.352 21.1703 11.3524L20.1715 11.304C20.1661 11.4148 20.1214 13.3164 20.1191 13.4177L21.1188 13.4406ZM21.1708 11.3388C21.2492 7.64554 18.3257 4.58375 14.6325 4.50172L14.6103 5.50147C17.7502 5.57121 20.2377 8.17451 20.171 11.3176L21.1708 11.3388ZM14.6326 4.50172C10.9402 4.41881 7.87948 7.3429 7.79657 11.0357L8.79632 11.0582C8.86683 7.91789 11.4695 5.43095 14.6102 5.50147L14.6326 4.50172ZM7.79646 11.043C7.79567 11.1421 7.75539 13.0281 7.75286 13.1398L8.7526 13.1625C8.75501 13.0564 8.79557 11.1596 8.79643 11.0509L7.79646 11.043ZM7.75285 13.1402C7.71087 15.0569 7.34472 16.2607 6.92371 17.0654C6.50112 17.873 6.01297 18.3074 5.61497 18.7153L6.3307 19.4137C6.69651 19.0388 7.305 18.4937 7.80976 17.529C8.31609 16.5612 8.70798 15.1997 8.75261 13.1621L7.75285 13.1402ZM5.61516 18.7151C4.59781 19.7566 5.24987 21.6289 6.82322 21.6628L6.84474 20.663C6.19594 20.6491 5.88952 19.8654 6.33051 19.4139L5.61516 18.7151ZM6.82267 21.6628L21.6609 21.9985L21.6836 20.9988L6.84529 20.6631L6.82267 21.6628ZM21.6617 21.9985C22.3817 22.0138 22.9758 21.5847 23.2591 21.0217C23.549 20.4457 23.5278 19.7021 23.0026 19.1091L22.254 19.7721C22.4827 20.0304 22.4895 20.3265 22.3659 20.5721C22.2358 20.8307 21.9749 21.0049 21.6828 20.9988L21.6617 21.9985ZM14.2908 25.4992C15.8866 25.533 17.2433 24.483 17.6775 23.0246L16.719 22.7393C16.4092 23.7802 15.4432 24.5234 14.312 24.4994L14.2908 25.4992ZM17.2095 22.3821L11.5131 22.2542L11.4906 23.2539L17.187 23.3818L17.2095 22.3821ZM11.0173 22.8775C11.3909 24.3442 12.6933 25.4615 14.2896 25.4992L14.3132 24.4995C13.1858 24.4728 12.2545 23.6831 11.9864 22.6306L11.0173 22.8775Z" fill="#25396F"/>
<circle cx="21.875" cy="7.5" r="3.5" fill="#FF6E91" stroke="white" stroke-width="2"/>
</svg>
