<svg width="35" height="35" viewBox="0 0 35 35" fill="none" xmlns="http://www.w3.org/2000/svg">
<circle cx="17.659" cy="17.7811" r="16.9117" fill="#FEEFF8"/>
<path d="M23.3229 13.211L22.2283 12.1163C21.7281 11.6162 20.9144 11.6162 20.4142 12.1163C19.9433 12.5873 12.7508 19.7804 12.2701 20.2611C12.2189 20.3123 12.1846 20.3803 12.1724 20.4469L11.6251 23.4026C11.6039 23.5172 11.6404 23.6349 11.7228 23.7173C11.8053 23.7998 11.923 23.8363 12.0375 23.8151L14.993 23.2677C15.0613 23.255 15.1284 23.2203 15.1788 23.17L23.3229 15.0252C23.8242 14.5239 23.8243 13.7124 23.3229 13.211ZM12.4147 23.0253L12.7458 21.2373L14.2026 22.6942L12.4147 23.0253ZM14.9286 22.4192L13.0208 20.5113L19.9858 13.5458L21.8935 15.4537L14.9286 22.4192ZM22.8224 14.5247L22.394 14.9532L20.4863 13.0453L20.9147 12.6169C21.1389 12.3927 21.5036 12.3926 21.7278 12.6169L22.8224 13.7116C23.0472 13.9363 23.0472 14.3 22.8224 14.5247Z" fill="#FF7B33"/>
</svg>
