<svg width="34" height="34" viewBox="0 0 34 34" fill="none" xmlns="http://www.w3.org/2000/svg">
<g clip-path="url(#clip0_82_22)">
<path d="M16.9117 33.8234C26.2518 33.8234 33.8234 26.2518 33.8234 16.9117C33.8234 7.57163 26.2518 0 16.9117 0C7.57163 0 0 7.57163 0 16.9117C0 26.2518 7.57163 33.8234 16.9117 33.8234Z" fill="#EBF3FF"/>
<path d="M22.9462 20.8141C22.9245 20.615 22.825 20.4372 22.666 20.314L20.3381 18.5147C19.9424 18.2093 19.4085 18.1731 18.9765 18.4229L18.5484 18.6703C18.2875 18.8205 17.9648 18.8007 17.7261 18.6161C17.3801 18.3499 16.8636 17.9286 16.3693 17.4338C15.8789 16.9429 15.4653 16.4361 15.2049 16.0974C15.0222 15.8601 15.002 15.5379 15.1527 15.2765L15.4001 14.8474C15.6499 14.4145 15.6142 13.8796 15.3088 13.4853L13.5089 11.1574C13.3863 10.9985 13.2094 10.899 13.0099 10.8767C12.8103 10.8536 12.6156 10.913 12.4615 11.0405C12.0662 11.3667 11.5584 11.7928 11.3821 11.9697C11.0245 12.3272 10.8719 12.7954 10.8719 13.5366C10.8719 14.401 12.4586 17.616 14.3695 19.4472C16.207 21.3654 19.422 22.9516 20.2874 22.9516C21.0281 22.9516 21.4963 22.799 21.8528 22.4414C22.0437 22.251 22.5172 21.6828 22.782 21.362C22.91 21.2074 22.968 21.0131 22.9462 20.8141ZM22.4099 21.0542C21.9678 21.59 21.6407 21.9712 21.5117 22.1002C21.3209 22.2916 21.0401 22.4684 20.2869 22.4684C19.6235 22.4684 16.507 20.9808 14.7106 19.1056C12.8432 17.3154 11.355 14.2 11.355 13.5366C11.355 12.7833 11.5319 12.5026 11.7237 12.3113C11.8512 12.1837 12.2223 11.8648 12.7693 11.4131C12.8147 11.3754 12.8702 11.3556 12.9282 11.3556C12.9374 11.3556 12.9471 11.3561 12.9563 11.357C13.0244 11.3647 13.0848 11.3986 13.1268 11.4532L14.9266 13.7806C15.1112 14.0197 15.1329 14.3435 14.9817 14.6058L14.7343 15.0349C14.4855 15.4658 14.5196 15.9989 14.8216 16.3917C15.0907 16.742 15.5185 17.2661 16.0278 17.7754C16.5404 18.288 17.0743 18.7243 17.4314 18.9988C17.8237 19.3022 18.3576 19.3389 18.7901 19.0891L19.2181 18.8413C19.48 18.69 19.8042 18.7127 20.0429 18.8973L22.3703 20.6961C22.4245 20.7382 22.4583 20.7991 22.466 20.8672C22.4737 20.9353 22.4539 21.0015 22.4099 21.0542Z" fill="#006AFF"/>
<path d="M15.4042 13.4114L15.3088 13.4853M15.3088 13.4853C15.6142 13.8796 15.6499 14.4145 15.4001 14.8474L15.1527 15.2765C15.002 15.5379 15.0222 15.8601 15.2049 16.0974C15.4653 16.4361 15.8789 16.9429 16.3693 17.4338C16.8636 17.9286 17.3801 18.3499 17.7261 18.6161C17.9648 18.8007 18.2875 18.8205 18.5484 18.6703L18.9765 18.4229C19.4085 18.1731 19.9424 18.2093 20.3381 18.5147L22.666 20.314C22.825 20.4372 22.9245 20.615 22.9462 20.8141C22.968 21.0131 22.91 21.2074 22.782 21.362C22.5172 21.6828 22.0437 22.251 21.8528 22.4414C21.4963 22.799 21.0281 22.9516 20.2874 22.9516C19.422 22.9516 16.207 21.3654 14.3695 19.4472C12.4586 17.616 10.8719 14.401 10.8719 13.5366C10.8719 12.7954 11.0245 12.3272 11.3821 11.9697C11.5584 11.7928 12.0662 11.3667 12.4615 11.0405C12.6156 10.913 12.8103 10.8536 13.0099 10.8767C13.2094 10.899 13.3863 10.9985 13.5089 11.1574L15.3088 13.4853ZM14.8216 16.3917C14.5196 15.9989 14.4855 15.4658 14.7343 15.0349L14.9817 14.6058C15.1329 14.3435 15.1112 14.0197 14.9266 13.7806L13.1268 11.4532C13.0848 11.3986 13.0244 11.3647 12.9563 11.357C12.9471 11.3561 12.9374 11.3556 12.9282 11.3556C12.8702 11.3556 12.8147 11.3754 12.7693 11.4131C12.2223 11.8648 11.8512 12.1837 11.7237 12.3113C11.5319 12.5026 11.355 12.7833 11.355 13.5366C11.355 14.2 12.8432 17.3154 14.7106 19.1056C16.507 20.9808 19.6235 22.4684 20.2869 22.4684C21.0401 22.4684 21.3209 22.2916 21.5117 22.1002C21.6407 21.9712 21.9678 21.59 22.4099 21.0542C22.4539 21.0015 22.4737 20.9353 22.466 20.8672C22.4583 20.7991 22.4245 20.7382 22.3703 20.6961L20.0429 18.8973C19.8042 18.7127 19.48 18.69 19.2181 18.8413L18.7901 19.0891C18.3576 19.3389 17.8237 19.3022 17.4314 18.9988C17.0743 18.7243 16.5404 18.288 16.0278 17.7754C15.5185 17.2661 15.0907 16.742 14.8216 16.3917Z" stroke="#006AFF" stroke-width="0.241596"/>
</g>
<defs>
<clipPath id="clip0_82_22">
<rect width="34" height="34" fill="white"/>
</clipPath>
</defs>
</svg>
