<svg width="16" height="13" viewBox="0 0 16 13" fill="none" xmlns="http://www.w3.org/2000/svg">
<path d="M14.9239 5.87615L10.0149 0.967073C9.69516 0.647369 9.17746 0.647369 8.85796 0.967073C8.53846 1.28678 8.53825 1.80448 8.85796 2.12398L12.3704 5.63642L1.09101 5.63642C0.639167 5.63642 0.272827 6.00235 0.272827 6.4546C0.272827 6.90685 0.639167 7.27278 1.09101 7.27278L12.3704 7.27278L8.85796 10.7852C8.53825 11.1049 8.53825 11.6226 8.85796 11.9421C9.01771 12.1019 9.22716 12.1819 9.43641 12.1819C9.64566 12.1819 9.85511 12.1019 10.0149 11.9421L14.9239 7.03306C15.2436 6.71356 15.2436 6.19565 14.9239 5.87615Z" fill="white"/>
</svg>
