<svg width="29" height="29" viewBox="0 0 29 29" fill="none" xmlns="http://www.w3.org/2000/svg">
<path d="M23.5 8.35H19.3167L19.3167 7.16667L19.3167 7.16648C19.3154 6.1637 18.503 5.35124 17.5002 5.35H17.5L11.5 5.35L11.4998 5.35C10.497 5.35124 9.68458 6.1637 9.68333 7.16648V7.16667V8.35H5.5C4.86491 8.35 4.35 8.86491 4.35 9.5L4.35 16.9199L4.35 16.9207C4.35225 17.3705 4.61475 17.7743 5.01667 17.9614V22.5C5.01667 23.1351 5.53158 23.65 6.16667 23.65H22.8333C23.4684 23.65 23.9833 23.1351 23.9833 22.5V17.9617C24.3852 17.7745 24.6479 17.3705 24.65 16.9206V16.9199V9.5C24.65 8.86491 24.1351 8.35 23.5 8.35ZM23.6833 16.9199V16.9201C23.6834 17.0114 23.6163 17.0888 23.526 17.1018C23.5259 17.1018 23.5258 17.1018 23.5257 17.1018L23.4339 17.1144L23.4338 17.1144L15.9833 18.1419V17.8333C15.9833 17.1982 15.4684 16.6833 14.8333 16.6833H14.1667C13.5316 16.6833 13.0167 17.1982 13.0167 17.8333V18.1419L5.47448 17.1018C5.47446 17.1018 5.47445 17.1018 5.47443 17.1018C5.38397 17.089 5.31658 17.0115 5.31667 16.9201V16.9199V9.5C5.31667 9.39876 5.39876 9.31667 5.5 9.31667H23.5C23.6012 9.31667 23.6833 9.39876 23.6833 9.5V16.9199ZM10.65 7.16667C10.65 6.69726 11.0306 6.31667 11.5 6.31667H17.5C17.9694 6.31667 18.35 6.69726 18.35 7.16667V8.35H17.9833V7.16667C17.9833 6.89974 17.7669 6.68333 17.5 6.68333H11.5C11.2331 6.68333 11.0167 6.89974 11.0167 7.16667V8.35H10.65V7.16667ZM17.0167 8.35H11.9833V7.65H17.0167V8.35ZM23.0167 22.5C23.0167 22.6012 22.9346 22.6833 22.8333 22.6833H6.16667C6.06543 22.6833 5.98333 22.6012 5.98333 22.5V18.1477L13.0167 19.1177V19.8333C13.0167 20.4684 13.5316 20.9833 14.1667 20.9833H14.8333C15.4684 20.9833 15.9833 20.4684 15.9833 19.8333V19.1177L23.0167 18.1477V22.5ZM15.0167 19.8333C15.0167 19.9346 14.9346 20.0167 14.8333 20.0167H14.1667C14.0654 20.0167 13.9833 19.9346 13.9833 19.8333V17.8333C13.9833 17.7321 14.0654 17.65 14.1667 17.65H14.8333C14.9346 17.65 15.0167 17.7321 15.0167 17.8333V19.8333Z" fill="#070B28" stroke="#070B28" stroke-width="0.3"/>
</svg>
