<svg width="41" height="41" viewBox="0 0 41 41" fill="none" xmlns="http://www.w3.org/2000/svg">
<path d="M30.8474 30.1109L27.2407 26.5042C28.8207 24.7499 29.7917 22.437 29.7917 19.8958C29.7917 14.4393 25.3524 10 19.8959 10C14.4393 10 10 14.4393 10 19.8959C10 25.3524 14.4393 29.7917 19.8959 29.7917C22.437 29.7917 24.7499 28.8207 26.5042 27.2407L30.1109 30.8474C30.2127 30.9491 30.346 31 30.4792 31C30.6125 31 30.7457 30.9491 30.8475 30.8474C31.0509 30.6439 31.0509 30.3144 30.8474 30.1109ZM19.8959 28.75C15.0141 28.75 11.0417 24.7781 11.0417 19.8959C11.0417 15.0136 15.0141 11.0417 19.8959 11.0417C24.7776 11.0417 28.75 15.0135 28.75 19.8959C28.75 24.7782 24.7776 28.75 19.8959 28.75Z" fill="#25396F"/>
</svg>
