<svg width="29" height="29" viewBox="0 0 29 29" fill="none" xmlns="http://www.w3.org/2000/svg">
<path d="M14.5001 10.2589C12.1579 10.2589 10.2592 12.1577 10.2592 14.4999C10.2592 16.8421 12.1579 18.7408 14.5001 18.7408C16.8423 18.7408 18.741 16.8421 18.741 14.4999C18.741 12.1577 16.8423 10.2589 14.5001 10.2589ZM14.5001 17.6226C12.7755 17.6226 11.3774 16.2245 11.3774 14.4999C11.3774 12.7752 12.7755 11.3771 14.5001 11.3771C16.2248 11.3771 17.6228 12.7752 17.6228 14.4999C17.6228 16.2245 16.2248 17.6226 14.5001 17.6226Z" fill="#808291" stroke="#808291" stroke-width="0.3"/>
<mask id="path-2-outside-1_5_14" maskUnits="userSpaceOnUse" x="4.5" y="4.5" width="20" height="20" fill="black">
<rect fill="white" x="4.5" y="4.5" width="20" height="20"/>
<path d="M22.8987 12.7L22.0314 12.4832C21.8551 11.8242 21.5923 11.1915 21.2501 10.6014L21.7123 9.83231C21.8998 9.58119 21.8998 9.23662 21.7123 8.9855L20.0146 7.28777C19.9172 7.19035 19.7841 7.13712 19.6464 7.1405C19.4767 7.14683 19.3117 7.19763 19.1678 7.28777L18.3946 7.75C17.8054 7.40987 17.1741 7.14851 16.5168 6.97273L16.3 6.10135C16.2059 5.80681 16.03 5.5 15.6987 5.5H13.3014C12.9701 5.5 12.7777 5.80681 12.7 6.10135L12.4832 6.9727C11.826 7.14848 11.1947 7.40983 10.6055 7.74997L9.83231 7.2877C9.68881 7.19612 9.52375 7.14391 9.35366 7.13635C9.21595 7.13298 9.08289 7.1862 8.98547 7.28362L7.28773 8.98547C7.10025 9.23659 7.10025 9.58116 7.28773 9.83228L7.75 10.6014C7.40769 11.1914 7.14493 11.8242 6.96866 12.4832L6.10135 12.7C5.80681 12.7737 5.5 12.97 5.5 13.3014V15.7027C5.5 16.0341 5.80681 16.21 6.10135 16.3041L6.96862 16.5209C7.14486 17.1799 7.40762 17.8127 7.74997 18.4027L7.2877 19.1677C7.09462 19.4169 7.09462 19.7652 7.2877 20.0145L8.98543 21.7122C9.07948 21.8067 9.20811 21.8584 9.34136 21.8554C9.51387 21.8463 9.68191 21.7973 9.83228 21.7122L10.6055 21.25C11.1947 21.5902 11.826 21.8515 12.4832 22.0273L12.7 22.8987C12.7737 23.1932 12.97 23.5 13.3014 23.5H15.7027C16.0341 23.5 16.21 23.1932 16.3041 22.8987L16.5209 22.0273C17.1781 21.8515 17.8094 21.5902 18.3986 21.25L19.1718 21.7123C19.3222 21.7972 19.4902 21.8462 19.6627 21.8555C19.796 21.8585 19.9246 21.8067 20.0186 21.7123L21.7164 20.0146C21.9095 19.7653 21.9095 19.417 21.7164 19.1678L21.25 18.3987C21.5924 17.8086 21.8551 17.1759 22.0314 16.5169L22.8987 16.3001C23.1932 16.206 23.5 16.0301 23.5 15.6987V13.3014C23.5 12.97 23.1932 12.7737 22.8987 12.7ZM22.6818 15.5105L21.8637 15.7191C21.5751 15.7906 21.348 16.013 21.2705 16.3001C21.112 16.8887 20.8768 17.4541 20.5709 17.9814C20.4248 18.2346 20.4248 18.5464 20.5709 18.7996L21.0209 19.5483L19.5727 21.0005L18.8241 20.5546C18.5709 20.4085 18.259 20.4085 18.0059 20.5546C17.4796 20.8587 16.9157 21.0925 16.3286 21.2501C16.0379 21.3182 15.8074 21.5393 15.7273 21.8269L15.5145 22.6819H13.4895L13.2727 21.8269C13.2012 21.5383 12.9788 21.3112 12.6918 21.2337C12.1047 21.0761 11.5408 20.8424 11.0145 20.5382C10.7614 20.3921 10.4495 20.3921 10.1963 20.5382L9.43951 20.9964L7.99951 19.5687L8.44951 18.8159C8.59565 18.5628 8.59565 18.2509 8.44951 17.9978C8.14337 17.4705 7.90817 16.9052 7.75 16.3164C7.67649 16.0283 7.45255 15.8028 7.165 15.7273L6.34681 15.5186H6.31816V13.4896L7.16497 13.2727C7.45357 13.2013 7.68064 12.9789 7.75816 12.6918C7.91633 12.103 8.15152 11.5377 8.4577 11.0105C8.60385 10.7573 8.60385 10.4454 8.4577 10.1923L8.00362 9.43955L9.43136 7.99954L10.1882 8.45362C10.4413 8.59977 10.7532 8.59977 11.0064 8.45362C11.5325 8.1492 12.0965 7.91538 12.6836 7.75816C12.9717 7.68465 13.1972 7.4607 13.2727 7.17316L13.4895 6.31816H15.5104L15.7273 7.17316C15.7987 7.46176 16.0211 7.68883 16.3082 7.76635C16.8954 7.92361 17.4593 8.15743 17.9855 8.46181C18.2386 8.60796 18.5505 8.60796 18.8036 8.46181L19.5605 8.00774L21.0005 9.42728L20.5545 10.1677C20.4084 10.4209 20.4084 10.7328 20.5545 10.9859C20.8604 11.5133 21.0956 12.0786 21.2541 12.6673C21.3216 12.9606 21.5447 13.1931 21.835 13.2727L22.6818 13.4855V15.5105H22.6818Z"/>
</mask>
<path d="M22.8987 12.7L22.0314 12.4832C21.8551 11.8242 21.5923 11.1915 21.2501 10.6014L21.7123 9.83231C21.8998 9.58119 21.8998 9.23662 21.7123 8.9855L20.0146 7.28777C19.9172 7.19035 19.7841 7.13712 19.6464 7.1405C19.4767 7.14683 19.3117 7.19763 19.1678 7.28777L18.3946 7.75C17.8054 7.40987 17.1741 7.14851 16.5168 6.97273L16.3 6.10135C16.2059 5.80681 16.03 5.5 15.6987 5.5H13.3014C12.9701 5.5 12.7777 5.80681 12.7 6.10135L12.4832 6.9727C11.826 7.14848 11.1947 7.40983 10.6055 7.74997L9.83231 7.2877C9.68881 7.19612 9.52375 7.14391 9.35366 7.13635C9.21595 7.13298 9.08289 7.1862 8.98547 7.28362L7.28773 8.98547C7.10025 9.23659 7.10025 9.58116 7.28773 9.83228L7.75 10.6014C7.40769 11.1914 7.14493 11.8242 6.96866 12.4832L6.10135 12.7C5.80681 12.7737 5.5 12.97 5.5 13.3014V15.7027C5.5 16.0341 5.80681 16.21 6.10135 16.3041L6.96862 16.5209C7.14486 17.1799 7.40762 17.8127 7.74997 18.4027L7.2877 19.1677C7.09462 19.4169 7.09462 19.7652 7.2877 20.0145L8.98543 21.7122C9.07948 21.8067 9.20811 21.8584 9.34136 21.8554C9.51387 21.8463 9.68191 21.7973 9.83228 21.7122L10.6055 21.25C11.1947 21.5902 11.826 21.8515 12.4832 22.0273L12.7 22.8987C12.7737 23.1932 12.97 23.5 13.3014 23.5H15.7027C16.0341 23.5 16.21 23.1932 16.3041 22.8987L16.5209 22.0273C17.1781 21.8515 17.8094 21.5902 18.3986 21.25L19.1718 21.7123C19.3222 21.7972 19.4902 21.8462 19.6627 21.8555C19.796 21.8585 19.9246 21.8067 20.0186 21.7123L21.7164 20.0146C21.9095 19.7653 21.9095 19.417 21.7164 19.1678L21.25 18.3987C21.5924 17.8086 21.8551 17.1759 22.0314 16.5169L22.8987 16.3001C23.1932 16.206 23.5 16.0301 23.5 15.6987V13.3014C23.5 12.97 23.1932 12.7737 22.8987 12.7ZM22.6818 15.5105L21.8637 15.7191C21.5751 15.7906 21.348 16.013 21.2705 16.3001C21.112 16.8887 20.8768 17.4541 20.5709 17.9814C20.4248 18.2346 20.4248 18.5464 20.5709 18.7996L21.0209 19.5483L19.5727 21.0005L18.8241 20.5546C18.5709 20.4085 18.259 20.4085 18.0059 20.5546C17.4796 20.8587 16.9157 21.0925 16.3286 21.2501C16.0379 21.3182 15.8074 21.5393 15.7273 21.8269L15.5145 22.6819H13.4895L13.2727 21.8269C13.2012 21.5383 12.9788 21.3112 12.6918 21.2337C12.1047 21.0761 11.5408 20.8424 11.0145 20.5382C10.7614 20.3921 10.4495 20.3921 10.1963 20.5382L9.43951 20.9964L7.99951 19.5687L8.44951 18.8159C8.59565 18.5628 8.59565 18.2509 8.44951 17.9978C8.14337 17.4705 7.90817 16.9052 7.75 16.3164C7.67649 16.0283 7.45255 15.8028 7.165 15.7273L6.34681 15.5186H6.31816V13.4896L7.16497 13.2727C7.45357 13.2013 7.68064 12.9789 7.75816 12.6918C7.91633 12.103 8.15152 11.5377 8.4577 11.0105C8.60385 10.7573 8.60385 10.4454 8.4577 10.1923L8.00362 9.43955L9.43136 7.99954L10.1882 8.45362C10.4413 8.59977 10.7532 8.59977 11.0064 8.45362C11.5325 8.1492 12.0965 7.91538 12.6836 7.75816C12.9717 7.68465 13.1972 7.4607 13.2727 7.17316L13.4895 6.31816H15.5104L15.7273 7.17316C15.7987 7.46176 16.0211 7.68883 16.3082 7.76635C16.8954 7.92361 17.4593 8.15743 17.9855 8.46181C18.2386 8.60796 18.5505 8.60796 18.8036 8.46181L19.5605 8.00774L21.0005 9.42728L20.5545 10.1677C20.4084 10.4209 20.4084 10.7328 20.5545 10.9859C20.8604 11.5133 21.0956 12.0786 21.2541 12.6673C21.3216 12.9606 21.5447 13.1931 21.835 13.2727L22.6818 13.4855V15.5105H22.6818Z" fill="#808291"/>
<path d="M22.8987 12.7L22.0314 12.4832C21.8551 11.8242 21.5923 11.1915 21.2501 10.6014L21.7123 9.83231C21.8998 9.58119 21.8998 9.23662 21.7123 8.9855L20.0146 7.28777C19.9172 7.19035 19.7841 7.13712 19.6464 7.1405C19.4767 7.14683 19.3117 7.19763 19.1678 7.28777L18.3946 7.75C17.8054 7.40987 17.1741 7.14851 16.5168 6.97273L16.3 6.10135C16.2059 5.80681 16.03 5.5 15.6987 5.5H13.3014C12.9701 5.5 12.7777 5.80681 12.7 6.10135L12.4832 6.9727C11.826 7.14848 11.1947 7.40983 10.6055 7.74997L9.83231 7.2877C9.68881 7.19612 9.52375 7.14391 9.35366 7.13635C9.21595 7.13298 9.08289 7.1862 8.98547 7.28362L7.28773 8.98547C7.10025 9.23659 7.10025 9.58116 7.28773 9.83228L7.75 10.6014C7.40769 11.1914 7.14493 11.8242 6.96866 12.4832L6.10135 12.7C5.80681 12.7737 5.5 12.97 5.5 13.3014V15.7027C5.5 16.0341 5.80681 16.21 6.10135 16.3041L6.96862 16.5209C7.14486 17.1799 7.40762 17.8127 7.74997 18.4027L7.2877 19.1677C7.09462 19.4169 7.09462 19.7652 7.2877 20.0145L8.98543 21.7122C9.07948 21.8067 9.20811 21.8584 9.34136 21.8554C9.51387 21.8463 9.68191 21.7973 9.83228 21.7122L10.6055 21.25C11.1947 21.5902 11.826 21.8515 12.4832 22.0273L12.7 22.8987C12.7737 23.1932 12.97 23.5 13.3014 23.5H15.7027C16.0341 23.5 16.21 23.1932 16.3041 22.8987L16.5209 22.0273C17.1781 21.8515 17.8094 21.5902 18.3986 21.25L19.1718 21.7123C19.3222 21.7972 19.4902 21.8462 19.6627 21.8555C19.796 21.8585 19.9246 21.8067 20.0186 21.7123L21.7164 20.0146C21.9095 19.7653 21.9095 19.417 21.7164 19.1678L21.25 18.3987C21.5924 17.8086 21.8551 17.1759 22.0314 16.5169L22.8987 16.3001C23.1932 16.206 23.5 16.0301 23.5 15.6987V13.3014C23.5 12.97 23.1932 12.7737 22.8987 12.7ZM22.6818 15.5105L21.8637 15.7191C21.5751 15.7906 21.348 16.013 21.2705 16.3001C21.112 16.8887 20.8768 17.4541 20.5709 17.9814C20.4248 18.2346 20.4248 18.5464 20.5709 18.7996L21.0209 19.5483L19.5727 21.0005L18.8241 20.5546C18.5709 20.4085 18.259 20.4085 18.0059 20.5546C17.4796 20.8587 16.9157 21.0925 16.3286 21.2501C16.0379 21.3182 15.8074 21.5393 15.7273 21.8269L15.5145 22.6819H13.4895L13.2727 21.8269C13.2012 21.5383 12.9788 21.3112 12.6918 21.2337C12.1047 21.0761 11.5408 20.8424 11.0145 20.5382C10.7614 20.3921 10.4495 20.3921 10.1963 20.5382L9.43951 20.9964L7.99951 19.5687L8.44951 18.8159C8.59565 18.5628 8.59565 18.2509 8.44951 17.9978C8.14337 17.4705 7.90817 16.9052 7.75 16.3164C7.67649 16.0283 7.45255 15.8028 7.165 15.7273L6.34681 15.5186H6.31816V13.4896L7.16497 13.2727C7.45357 13.2013 7.68064 12.9789 7.75816 12.6918C7.91633 12.103 8.15152 11.5377 8.4577 11.0105C8.60385 10.7573 8.60385 10.4454 8.4577 10.1923L8.00362 9.43955L9.43136 7.99954L10.1882 8.45362C10.4413 8.59977 10.7532 8.59977 11.0064 8.45362C11.5325 8.1492 12.0965 7.91538 12.6836 7.75816C12.9717 7.68465 13.1972 7.4607 13.2727 7.17316L13.4895 6.31816H15.5104L15.7273 7.17316C15.7987 7.46176 16.0211 7.68883 16.3082 7.76635C16.8954 7.92361 17.4593 8.15743 17.9855 8.46181C18.2386 8.60796 18.5505 8.60796 18.8036 8.46181L19.5605 8.00774L21.0005 9.42728L20.5545 10.1677C20.4084 10.4209 20.4084 10.7328 20.5545 10.9859C20.8604 11.5133 21.0956 12.0786 21.2541 12.6673C21.3216 12.9606 21.5447 13.1931 21.835 13.2727L22.6818 13.4855V15.5105H22.6818Z" stroke="#808291" stroke-width="0.6" mask="url(#path-2-outside-1_5_14)"/>
</svg>
